<svg xmlns="http://www.w3.org/2000/svg" width="125" height="24" viewBox="0 0 125 24">
  <g id="Group_21" data-name="Group 21" transform="translate(-72 -333)">
    <path id="Path_8" data-name="Path 8" d="M87.248,342.4a7.254,7.254,0,0,0-5.506-2.448,6.144,6.144,0,0,0-4.855,1.951v-8.857H72v23.8h4.887v-1.951a6.144,6.144,0,0,0,4.855,1.951,7.257,7.257,0,0,0,5.506-2.448,9.031,9.031,0,0,0,0-12Zm-3.7,8.848a4.205,4.205,0,0,1-5.573,0,4.263,4.263,0,0,1,0-5.7,4.2,4.2,0,0,1,5.573,0,4.263,4.263,0,0,1,0,5.7Z" transform="translate(0 -0.005)" fill="#fff"/>
    <path id="Path_9" data-name="Path 9" d="M99.5,344.246a4,4,0,0,1,1.841-2.394,5.808,5.808,0,0,1,3.045-.831v5.539a4.9,4.9,0,0,0-3.34.6,3.3,3.3,0,0,0-1.547,3.112v7.819H94.61V341.347H99.5Z" transform="translate(-2.477 -1.252)" fill="#fff"/>
    <path id="Path_10" data-name="Path 10" d="M119.227,341.332v1.531a6.091,6.091,0,0,0-4.855-1.987,7.192,7.192,0,0,0-5.505,2.492,9.317,9.317,0,0,0,0,12.218,7.2,7.2,0,0,0,5.505,2.492,6.091,6.091,0,0,0,4.855-1.987v1.987h4.887V341.332Zm-1.076,11.045a4.189,4.189,0,0,1-5.6,0,4.446,4.446,0,0,1,0-5.8,4.186,4.186,0,0,1,5.6,0,4.446,4.446,0,0,1,0,5.8Z" transform="translate(-3.806 -1.237)" fill="#fff"/>
    <path id="Path_11" data-name="Path 11" d="M134.557,338.255a2.907,2.907,0,1,1,.865-2.068A2.816,2.816,0,0,1,134.557,338.255Z" transform="translate(-6.291 -0.026)" fill="#fff"/>
    <rect id="Rectangle_3" data-name="Rectangle 3" width="4.887" height="16.747" transform="translate(123.754 340.095)" fill="#fff"/>
    <path id="Path_12" data-name="Path 12" d="M149.082,340.876a5.82,5.82,0,0,1,4.35,1.792,6.8,6.8,0,0,1,1.743,4.952v10.458h-4.887v-9.742a2.907,2.907,0,0,0-.8-2.2,2.824,2.824,0,0,0-2.036-.767,2.935,2.935,0,0,0-2.217.848,3.493,3.493,0,0,0-.814,2.509v9.35h-4.887V341.332h4.887v1.531A5.405,5.405,0,0,1,149.082,340.876Z" transform="translate(-7.424 -1.237)" fill="#fff"/>
    <rect id="Rectangle_4" data-name="Rectangle 4" width="4.889" height="23.809" transform="matrix(1, -0.006, 0.006, 1, 150.937, 333.191)" fill="#fff"/>
    <path id="Path_13" data-name="Path 13" d="M181.84,341.382l.009,1.532a6.092,6.092,0,0,0-4.866-1.96,7.2,7.2,0,0,0-5.492,2.524,9.319,9.319,0,0,0,.069,12.218,7.2,7.2,0,0,0,5.521,2.461,6.091,6.091,0,0,0,4.844-2.015l.011,1.987,4.887-.028-.1-16.746Zm-1.012,11.051a4.19,4.19,0,0,1-5.6.032,4.447,4.447,0,0,1-.033-5.8,4.188,4.188,0,0,1,5.6-.032,4.447,4.447,0,0,1,.033,5.8Z" transform="translate(-10.703 -1.245)" fill="#fff"/>
    <path id="Path_14" data-name="Path 14" d="M207.964,342.3a7.257,7.257,0,0,0-5.52-2.418,6.142,6.142,0,0,0-4.844,1.98L197.549,333l-4.887.027.138,23.809,4.887-.027-.011-1.952a6.144,6.144,0,0,0,4.866,1.925,7.255,7.255,0,0,0,5.492-2.479,9.032,9.032,0,0,0-.07-12Zm-3.646,8.868a4.2,4.2,0,0,1-5.572.031,4.262,4.262,0,0,1-.033-5.7,4.2,4.2,0,0,1,5.572-.031,4.262,4.262,0,0,1,.033,5.7Z" transform="translate(-13.28 0)" fill="#fff"/>
  </g>
</svg>
